<svg width="270" height="325" viewBox="0 0 270 325" fill="none" xmlns="http://www.w3.org/2000/svg">
<path d="M226 62C227.781 62.043 227.781 62.043 230 63C231.376 65.4538 232.459 67.7204 233.5 70.3125C233.954 71.4095 233.954 71.4095 234.417 72.5286C235.296 74.679 236.149 76.8382 237 79C237.611 80.4811 237.611 80.4811 238.234 81.9922C245.22 100.532 244.489 121.306 244.611 140.787C244.293 170.328 244.293 170.328 247.812 199.562C248.076 200.89 248.076 200.89 248.346 202.244C249.909 209.926 251.814 217.471 254 225C254.425 226.555 254.425 226.555 254.859 228.141C257.086 235.915 260.104 243.252 263.358 250.642C263.869 251.813 263.869 251.813 264.391 253.008C264.7 253.705 265.01 254.403 265.329 255.122C266 257 266 257 266 260C266.66 260 267.32 260 268 260C268.33 262.31 268.66 264.62 269 267C266.038 266.387 264.619 265.746 262 264C262 263.34 262 262.68 262 262C261.227 261.66 261.227 261.66 260.438 261.312C257.105 259.518 253.853 257.5 251 255C251 254.34 251 253.68 251 253C249.68 252.67 248.36 252.34 247 252C247 251.34 247 250.68 247 250C246.446 249.755 245.891 249.51 245.32 249.258C241.579 247.23 238.501 244.397 235.242 241.68C233.2 239.8 233.2 239.8 231 240C230.732 240.499 230.464 240.998 230.188 241.512C226.747 247.816 223.011 253.914 219.226 260.017C216.802 263.939 214.403 267.877 212 271.812C211.507 272.62 211.014 273.428 210.505 274.26C209.337 276.173 208.168 278.086 207 280C202.442 279.403 202.442 279.403 200.48 277.617C200.054 277.042 199.627 276.467 199.188 275.875C196.463 272.455 193.494 269.735 190.168 266.91C186.259 263.466 182.644 259.72 179 256C176.193 259.369 173.858 262.755 171.688 266.562C171.089 267.6 170.491 268.638 169.875 269.707C168.597 271.951 167.327 274.198 166.062 276.449C165.134 278.083 165.134 278.083 164.188 279.75C163.624 280.755 163.061 281.761 162.48 282.797C161.992 283.524 161.503 284.251 161 285C160.34 285 159.68 285 159 285C158.853 285.824 158.853 285.824 158.703 286.664C157.818 289.604 156.404 291.783 154.75 294.375C150.711 300.783 146.845 307.286 143 313.812C142.412 314.81 141.824 315.808 141.218 316.835C139.811 319.223 138.405 321.611 137 324C132.199 323.214 132.199 323.214 130.41 321.285C129.965 320.552 129.521 319.818 129.062 319.062C128.565 318.256 128.067 317.449 127.555 316.617C127.042 315.754 126.529 314.89 126 314C125.446 313.116 124.891 312.231 124.32 311.32C119.777 303.994 119.777 303.994 119 300C118.34 300 117.68 300 117 300C116.671 299.368 116.343 298.737 116.004 298.086C113.036 292.504 109.874 287.114 106.438 281.812C105.859 280.919 105.859 280.919 105.268 280.008C103.624 277.479 101.971 274.956 100.312 272.438C97 267.318 97 267.318 97 264C96.34 264 95.68 264 95 264C93.68 261.69 92.36 259.38 91 257C90.4019 257.309 89.8037 257.619 89.1875 257.938C87 259 87 259 84 260C82.7912 262 82.7912 262 82 264C81.34 264 80.68 264 80 264C79.67 264.99 79.34 265.98 79 267C77.3281 268.613 77.3281 268.613 75.25 270.312C72.5997 272.537 70.3401 274.681 68.25 277.438C67.5075 278.283 66.765 279.129 66 280C64.68 280 63.36 280 62 280C58 275 58 275 58 271C57.34 271 56.68 271 56 271C54.6815 268.753 53.3701 266.503 52.0625 264.25C51.5027 263.299 51.5027 263.299 50.9316 262.328C49.1446 259.237 47.7512 256.485 47 253C46.34 253 45.68 253 45 253C43.2734 250.445 43.2734 250.445 41.375 247.125C40.7434 246.034 40.1117 244.944 39.4609 243.82C38 241 38 241 38 239C35.0233 239.744 35.0233 239.744 33.4375 241.562C32.9631 242.037 32.4888 242.511 32 243C31.34 243 30.68 243 30 243C29.67 243.99 29.34 244.98 29 246C26.9491 247.735 24.9084 249.348 22.75 250.938C21.5987 251.8 20.4476 252.664 19.2969 253.527C18.7394 253.941 18.1818 254.355 17.6074 254.781C16.1075 255.918 14.653 257.116 13.2031 258.316C11 260 11 260 9 260C8.01 261.98 8.01 261.98 7 264C6.34 264 5.68 264 5 264C5 264.66 5 265.32 5 266C3.68 266.33 2.36 266.66 1 267C-0.0543145 263.753 -0.132331 262.321 1.1875 259.117C1.78563 258.047 2.38375 256.977 3 255.875C20.4969 223.088 25.0729 184.333 25.3711 147.668C25.3767 146.991 25.3823 146.314 25.3881 145.616C25.428 140.106 25.4389 134.596 25.4366 129.087C25.4268 104.678 27.5725 85.0086 39 63C42.7952 63.1962 43.8677 63.8534 46.4648 66.7305C47.3021 67.8734 48.1259 69.0263 48.9375 70.1875C51.6398 73.9229 54.1581 77.3651 57.6875 80.375C60 83 60 83 60.0625 86.5C59.0219 89.9279 57.6251 92.8176 56 96C54.1278 103.659 54.4778 110.615 57.2461 117.957C58 120 58 120 58.4102 122.199C58.6048 122.793 58.7995 123.388 59 124C59.99 124.33 60.98 124.66 62 125C62.8817 126.152 62.8817 126.152 63.7813 127.328C68.4598 132.962 76.3617 136.345 83.5156 137.633C85.5644 137.786 87.6178 137.891 89.6719 137.93C92 138 92 138 94 139C95.9084 144.07 94.8809 149.793 94 155C91.5933 160.032 86.8759 161.902 82.0938 164.383C78.839 166.084 75.6699 167.896 72.5 169.75C71.5203 170.322 70.5406 170.895 69.5312 171.484C67.6569 172.607 65.8177 173.788 64 175C63.01 175 62.02 175 61 175C61 175.66 61 176.32 61 177C61.6884 177.253 62.3767 177.505 63.0859 177.766C66.424 179.18 69.5035 180.922 72.625 182.75C73.8589 183.464 75.0932 184.178 76.3281 184.891C76.9411 185.244 77.554 185.598 78.1855 185.963C82.4167 188.381 86.7098 190.689 91 193C91 193.66 91 194.32 91 195C91.5955 195.249 92.1911 195.498 92.8047 195.754C107.596 204.15 115.94 234.321 120.359 249.789C120.996 251.986 121.702 254.146 122.438 256.312C126.631 268.762 130.237 281.416 134 294C136.225 291.775 136.37 291.025 136.93 288.035C138.019 282.731 139.53 277.609 141.125 272.438C141.431 271.443 141.738 270.448 142.053 269.424C143.028 266.28 144.013 263.14 145 260C145.312 258.999 145.625 257.997 145.947 256.965C149.526 245.569 153.466 234.415 158.188 223.438C158.591 222.492 158.995 221.546 159.411 220.572C161.785 215.203 164.444 210.668 168 206C168.454 205.196 168.907 204.391 169.375 203.562C174.947 194.776 182.011 190.065 191 185C192.014 184.417 193.029 183.835 194.074 183.234C198.611 180.684 202.943 178.367 208 177C208 176.34 208 175.68 208 175C207.01 174.907 207.01 174.907 206 174.812C201.777 173.669 198.641 171.379 195 169C192.796 167.618 190.588 166.243 188.375 164.875C187.31 164.212 186.245 163.55 185.148 162.867C182.072 160.906 182.072 160.906 178.695 159.824C176 158 176 158 175.31 156.112C174.884 153.713 174.66 151.369 174.5 148.938C174.415 148.109 174.33 147.281 174.242 146.428C173.851 141.972 173.851 141.972 174 140C176.611 137.389 177.866 137.747 181.5 137.625C191.55 136.905 199.86 133.211 207 126C209.017 123.132 210.59 120.206 212 117C212.365 116.202 212.73 115.404 213.105 114.582C215.749 106.953 214.257 99.2464 211.07 92.0586C209.937 89.7886 209.937 89.7886 208 87C208.171 83.675 208.785 82.2561 210.938 79.6875C213 78 213 78 215 78C215.235 77.4689 215.469 76.9378 215.711 76.3906C217.387 73.2822 219.485 70.546 221.625 67.75C222.255 66.9186 222.255 66.9186 222.898 66.0703C223.929 64.7113 224.964 63.3554 226 62Z" fill="white"/>
<path d="M171.5 9.81251C172.515 10.1438 173.53 10.4751 174.576 10.8164C180.61 12.8904 185.766 15.3645 191 19C191.844 19.558 191.844 19.558 192.705 20.1272C207.08 29.6341 207.08 29.6341 212 35C212 35.66 212 36.32 212 37C212.964 36.5179 213.928 36.0358 214.922 35.5391C226 30 226 30 228.391 28.8906C230.578 27.68 230.948 26.2361 232 24C233.295 22.6291 234.621 21.2866 236 20C236.99 20.33 237.98 20.66 239 21C238.382 25.1416 236.981 28.3529 235.062 32.0625C234.538 33.0847 234.013 34.107 233.473 35.1602C232.987 36.0973 232.501 37.0345 232 38C231.331 39.332 230.663 40.6648 230 42C229.34 42 228.68 42 228 42C227.629 43.0731 227.629 43.0731 227.25 44.168C225.861 47.3141 224.155 49.6381 222 52.3125C221.299 53.1955 220.597 54.0785 219.875 54.9883C218.947 55.9841 218.947 55.9841 218 57C217.34 57 216.68 57 216 57C215.66 57.8044 215.66 57.8044 215.312 58.625C211.711 65.1418 205.175 72.6082 198 75C197.67 75.99 197.34 76.98 197 78C194.93 79.807 192.876 81.476 190.687 83.125C190.105 83.58 189.523 84.0351 188.924 84.5039C185.979 86.7521 183.623 88.2679 180 89C180 89.66 180 90.32 180 91C178.026 92.4242 176.067 93.7247 174 95C172.938 95.6716 171.876 96.3432 170.781 97.0352C169.698 97.7042 168.616 98.3732 167.5 99.0625C166.417 99.7341 165.334 100.406 164.219 101.098C155.891 106.019 155.891 106.019 152.125 105.938C149.459 105.138 147.785 104.316 145.437 102.938C139.991 100.04 134.01 100.316 128 101C126.655 101.643 125.32 102.307 124 103C122.68 103 121.36 103 120 103C120 103.66 120 104.32 120 105C116.193 106.06 114.42 106.181 110.738 104.594C109.586 103.914 108.444 103.215 107.312 102.5C106.7 102.13 106.088 101.76 105.457 101.378C104.212 100.621 102.972 99.8569 101.737 99.0845C100.215 98.1345 98.6773 97.2115 97.1367 96.293C86.2977 89.6932 76.4713 81.5674 67.164 72.9727C65.3034 71.2766 63.4007 69.6983 61.4375 68.125C57.4794 64.7845 54.4005 60.7426 51.2109 56.6836C49.0121 53.9069 49.0121 53.9069 46.2265 51.3477C44 49 44 49 44 46C43.01 45.67 42.02 45.34 41 45C38.35 41.4667 36.6112 38.0755 35 34C33.6645 31.7453 32.3147 29.5036 30.9258 27.2813C29.7785 24.4542 30.1623 22.8836 31 20C34.8155 21.499 36.5374 23.7987 39 27C39.66 27.33 40.32 27.66 41 28C41 28.66 41 29.32 41 30C41.6806 30.2681 42.3612 30.5363 43.0625 30.8125C45.2258 31.687 47.3692 32.6113 49.5 33.5625C52.4073 34.7566 54.9127 35.5322 58 36C58.2654 35.3964 58.5308 34.7928 58.8042 34.1709C60.7682 30.6054 63.8981 28.6427 67.125 26.25C67.8342 25.7221 68.5434 25.1943 69.2742 24.6504C98.979 3.13742 136.979 -1.49798 171.5 9.81251Z" fill="white"/>
<path d="M143.625 116C152.141 121.291 157.219 128.94 159.648 138.57C161.447 147.926 161.623 157.503 162 167C162.912 167.213 162.912 167.213 163.843 167.43C166.469 168.124 168.7 169.218 171.125 170.438C172.428 171.085 172.428 171.085 173.758 171.746C176 173 176 173 178 175C178 175.99 178 176.98 178 178C177.072 178.454 176.144 178.907 175.188 179.375C154.379 191.362 144.217 216.761 138.188 238.996C137.74 240.987 137.359 242.992 137 245C135.68 245 134.36 245 133 245C130.4 240.27 129.039 235.745 127.75 230.562C123.645 215.069 115.997 196.025 102.688 186.312C102.131 185.879 101.574 185.446 101 185C101 184.34 101 183.68 101 183C100.278 182.732 99.5562 182.464 98.8125 182.188C95.9637 180.985 93.486 179.847 91 178C91 176.68 91 175.36 91 174C92.0712 173.434 93.1424 172.868 94.2461 172.285C95.6433 171.544 97.0404 170.803 98.4375 170.062C99.4981 169.503 99.4981 169.503 100.58 168.932C104.005 167.275 104.005 167.275 107 165C107.095 162.838 107.184 160.675 107.239 158.511C107.632 144.087 109.58 131.39 119.559 120.262C121 119 121 119 123 119C123 118.34 123 117.68 123 117C130.097 113.376 136.283 112.304 143.625 116Z" fill="white"/>
<path d="M227 63C227.99 63 228.98 63 230 63C241.782 89.0789 244.432 112.204 244.611 140.787C244.293 170.328 244.293 170.328 247.812 199.562C248.076 200.89 248.076 200.89 248.346 202.244C249.909 209.926 251.814 217.471 254 225C254.425 226.555 254.425 226.555 254.859 228.141C257.086 235.915 260.104 243.252 263.358 250.642C263.869 251.813 263.869 251.813 264.391 253.008C264.7 253.705 265.01 254.403 265.329 255.122C266 257 266 257 266 260C266.66 260 267.32 260 268 260C268.33 262.31 268.66 264.62 269 267C266.038 266.387 264.619 265.746 262 264C262 263.34 262 262.68 262 262C261.227 261.66 261.227 261.66 260.438 261.312C257.105 259.518 253.853 257.5 251 255C251 254.34 251 253.68 251 253C249.68 252.67 248.36 252.34 247 252C247 251.34 247 250.68 247 250C246.446 249.755 245.891 249.51 245.32 249.258C241.579 247.23 238.501 244.397 235.242 241.68C233.2 239.8 233.2 239.8 231 240C230.732 240.499 230.464 240.998 230.188 241.512C226.747 247.816 223.011 253.914 219.226 260.017C216.802 263.939 214.403 267.877 212 271.812C211.507 272.62 211.014 273.428 210.505 274.26C209.337 276.173 208.168 278.086 207 280C202.442 279.403 202.442 279.403 200.48 277.617C199.84 276.755 199.84 276.755 199.188 275.875C196.463 272.455 193.494 269.735 190.168 266.91C186.259 263.466 182.644 259.72 179 256C176.193 259.369 173.858 262.755 171.688 266.562C171.089 267.6 170.491 268.638 169.875 269.707C168.597 271.951 167.327 274.198 166.062 276.449C165.444 277.538 164.825 278.628 164.188 279.75C163.624 280.755 163.061 281.761 162.48 282.797C161.992 283.524 161.503 284.251 161 285C160.34 285 159.68 285 159 285C158.902 285.549 158.804 286.098 158.703 286.664C157.818 289.604 156.404 291.783 154.75 294.375C150.711 300.783 146.845 307.286 143 313.812C142.412 314.81 141.824 315.808 141.218 316.835C139.811 319.223 138.405 321.611 137 324C132.199 323.214 132.199 323.214 130.41 321.285C129.965 320.552 129.521 319.818 129.062 319.062C128.316 317.852 128.316 317.852 127.555 316.617C127.042 315.754 126.529 314.89 126 314C125.446 313.116 124.891 312.231 124.32 311.32C119.777 303.994 119.777 303.994 119 300C118.34 300 117.68 300 117 300C116.671 299.368 116.343 298.737 116.004 298.086C111.755 290.095 106.943 282.569 102 275C97 267.303 97 267.303 97 265C101.075 266.358 102.05 269.009 104.062 272.562C104.864 273.94 105.668 275.316 106.473 276.691C107.096 277.761 107.096 277.761 107.731 278.852C109.754 282.277 111.877 285.637 114 289C117.332 294.298 120.603 299.627 123.812 305C124.371 305.934 124.371 305.934 124.942 306.887C126.496 309.484 128.049 312.082 129.602 314.68C131.69 318.449 131.69 318.449 135 321C135.279 320.261 135.558 319.522 135.845 318.76C136.891 316.261 138.039 314.121 139.477 311.832C139.974 311.034 140.472 310.237 140.985 309.415C141.797 308.127 141.797 308.127 142.625 306.812C143.801 304.93 144.977 303.047 146.152 301.164C146.776 300.167 147.4 299.169 148.042 298.142C151.45 292.673 154.816 287.179 158.188 281.688C164.082 272.098 170.011 262.531 176 253C179.37 253.595 181.165 254.715 183.688 257C184.722 257.934 184.722 257.934 185.777 258.887C188.913 261.868 191.931 264.957 194.922 268.082C196.903 269.911 198.617 270.814 201 272C201.66 272.99 202.32 273.98 203 275C203.99 275.33 204.98 275.66 206 276C206.268 275.281 206.536 274.562 206.812 273.821C208.008 270.982 209.403 268.492 211.012 265.867C211.902 264.409 211.902 264.409 212.811 262.922C213.43 261.916 214.049 260.911 214.688 259.875C215.288 258.893 215.888 257.91 216.506 256.898C217.716 254.922 218.933 252.951 220.158 250.983C221.421 248.938 222.659 246.878 223.877 244.806C224.783 243.297 224.783 243.297 225.707 241.758C226.513 240.387 226.513 240.387 227.335 238.989C227.885 238.332 228.434 237.676 229 237C233.742 237 235.505 238.539 239 241.375C239.85 242.046 239.85 242.046 240.717 242.731C245.661 246.659 250.491 250.726 255.32 254.793C258.448 257.369 261.654 259.719 265 262C264.648 261.366 264.296 260.732 263.934 260.078C257.394 247.717 252.679 234.243 249.605 220.605C249.168 218.722 248.651 216.857 248.086 215.008C246.442 209.333 245.502 203.492 244.438 197.688C244.106 195.929 244.106 195.929 243.768 194.135C243.554 192.98 243.341 191.826 243.121 190.637C242.93 189.602 242.738 188.568 242.541 187.503C241.141 178.433 240.855 169.48 240.831 160.313C240.824 158.035 240.808 155.757 240.79 153.479C240.738 147.009 240.69 140.538 240.674 134.068C240.664 130.088 240.634 126.108 240.593 122.128C240.581 120.633 240.575 119.137 240.578 117.641C240.594 103.354 237.72 90.4846 233 77C232.628 75.3416 232.271 73.678 232 72C231.34 72 230.68 72 230 72C229.01 69.03 228.02 66.06 227 63Z" fill="white"/>
<path d="M71 95C75.0442 95.5846 77.4655 97.6991 80.625 100.188C89.2013 106.803 98.472 111.892 108 117C108 118.32 108 119.64 108 121C97.3167 125.421 86.6833 125.421 76 121C76 120.34 76 119.68 76 119C75.4019 118.773 74.8038 118.546 74.1875 118.312C71.3324 116.599 70.4733 114.976 69 112C68.6367 109.062 68.6367 109.062 68.6875 106C68.6914 104.989 68.6952 103.979 68.6992 102.938C69.0054 99.9477 69.7466 97.7165 71 95Z" fill="white"/>
<path d="M198 96C200.545 102.204 201.081 107.986 198.812 114.312C195.19 119.683 190.321 122.674 184 124C175.765 124.667 168.491 124.669 161 121C161 119.68 161 118.36 161 117C163.309 115.254 163.309 115.254 166.438 113.562C167.54 112.953 168.642 112.343 169.777 111.715C171.642 110.723 173.508 109.734 175.379 108.754C181.171 105.671 186.193 101.886 191.301 97.793C194 96 194 96 198 96Z" fill="white"/>
<path d="M237 21C237.66 21 238.32 21 239 21C238.382 25.1416 236.981 28.3529 235.062 32.0625C234.538 33.0847 234.013 34.107 233.473 35.1602C232.987 36.0973 232.501 37.0345 232 38C231.331 39.332 230.663 40.6648 230 42C229.34 42 228.68 42 228 42C227.752 42.7154 227.505 43.4309 227.25 44.168C225.861 47.3141 224.155 49.6381 222 52.3125C221.299 53.1955 220.598 54.0785 219.875 54.9883C218.947 55.9841 218.947 55.9841 218 57C217.34 57 216.68 57 216 57C215.66 57.8044 215.66 57.8044 215.312 58.625C211.711 65.1418 205.175 72.6082 198 75C197.67 75.99 197.34 76.98 197 78C194.93 79.807 192.876 81.476 190.688 83.125C190.105 83.58 189.523 84.0351 188.924 84.5039C185.979 86.7521 183.623 88.2679 180 89C180 89.66 180 90.32 180 91C178.026 92.4242 176.067 93.7247 174 95C172.938 95.6716 171.876 96.3432 170.781 97.0352C169.698 97.7042 168.616 98.3732 167.5 99.0625C165.876 100.07 165.876 100.07 164.219 101.098C155.891 106.019 155.891 106.019 152.125 105.938C149.459 105.138 147.785 104.316 145.438 102.938C139.991 100.04 134.01 100.316 128 101C126.655 101.643 125.32 102.307 124 103C122.68 103 121.36 103 120 103C120 103.66 120 104.32 120 105C116.193 106.06 114.42 106.181 110.738 104.594C109.586 103.914 108.444 103.215 107.312 102.5C106.7 102.13 106.088 101.76 105.457 101.378C104.212 100.621 102.972 99.8569 101.737 99.0845C100.215 98.1345 98.6773 97.2114 97.1367 96.293C86.2977 89.6932 76.4713 81.5674 67.1641 72.9727C65.3034 71.2766 63.4008 69.6983 61.4375 68.125C57.4794 64.7845 54.4005 60.7426 51.2109 56.6836C49.0028 53.9061 49.0028 53.9061 46.2266 51.2852C44 49 44 49 44 47C47.6767 48.5105 49.7187 50.6489 52.3125 53.625C53.4959 54.9688 53.4959 54.9688 54.7031 56.3398C56.0948 57.9516 57.4817 59.5677 58.8594 61.1914C62.9092 65.9379 67.2177 69.9997 72 74C72.8624 74.7502 73.7248 75.5005 74.6133 76.2734C82.6464 83.1652 91.1342 89.2248 100 95C100.884 95.5762 100.884 95.5762 101.786 96.1641C109.277 101.186 109.277 101.186 118 102C120.117 101.168 120.117 101.168 122.062 100C128.596 96.9204 135.954 96.6439 142.809 98.9414C144.426 99.6478 146.023 100.403 147.586 101.223C151.584 102.51 155.052 101.848 158.879 100.182C160.927 99.1075 162.901 97.9542 164.875 96.75C165.973 96.0905 165.973 96.0905 167.093 95.4177C179.251 87.9408 190.315 79.0355 200.582 69.1445C203 67 203 67 205.199 65.9492C207.555 64.7076 207.895 63.3788 209 61C210.127 59.8348 211.299 58.713 212.5 57.625C223.12 47.1962 230.067 34.0109 237 21Z" fill="white"/>
<path d="M169 171C172.776 171.524 175.224 172.327 178 175C178 175.99 178 176.98 178 178C176.608 178.681 176.608 178.681 175.188 179.375C154.379 191.362 144.217 216.761 138.188 238.996C137.74 240.987 137.359 242.992 137 245C135.68 245 134.36 245 133 245C130.553 240.638 129.497 236.973 129 232C129.66 232 130.32 232 131 232C131.99 234.64 132.98 237.28 134 240C134.186 239.427 134.372 238.853 134.563 238.263C142.21 214.765 150.018 190.907 172 177C172.66 177 173.32 177 174 177C171.525 174.03 171.525 174.03 169 171Z" fill="white"/>
<path d="M72 96C76.0593 96.5996 78.9417 98.8488 82.1875 101.188C83.3539 102.01 84.5205 102.831 85.6875 103.652C86.2547 104.054 86.8219 104.456 87.4062 104.871C94.026 109.562 100.654 113.534 108 117C108 118.32 108 119.64 108 121C97.3167 125.421 86.6833 125.421 76 121C76 120.34 76 119.68 76 119C75.4019 118.773 74.8037 118.546 74.1875 118.312C71.3882 116.633 70.419 114.909 69 112C69 111.01 69 110.02 69 109C69.66 109 70.32 109 71 109C71.3919 109.908 71.7837 110.815 72.1875 111.75C75.007 116.806 78.5762 119.215 84 121C87.1847 121.278 87.1847 121.278 90.5 121.188C91.6034 121.181 92.7069 121.175 93.8438 121.168C96.6723 121.017 99.2469 120.642 102 120C102 119.01 102 118.02 102 117C100.476 116.182 100.476 116.182 98.9219 115.348C76.9019 103.353 76.9019 103.353 72 96Z" fill="white"/>
<path d="M227 63C227.99 63 228.98 63 230 63C238.61 82.0573 243.434 98.6456 242.977 119.703C242.95 121.278 242.925 122.852 242.901 124.427C242.835 128.531 242.756 132.634 242.674 136.737C242.592 140.94 242.523 145.144 242.453 149.348C242.314 157.565 242.162 165.783 242 174C241.67 174 241.34 174 241 174C240.996 173.148 240.993 172.297 240.989 171.419C240.951 163.315 240.894 155.212 240.816 147.109C240.777 142.945 240.745 138.781 240.729 134.617C240.714 130.584 240.679 126.551 240.632 122.518C240.617 120.994 240.609 119.47 240.608 117.946C240.592 103.545 237.759 90.597 233 77C232.628 75.3416 232.271 73.678 232 72C231.34 72 230.68 72 230 72C229.01 69.03 228.02 66.06 227 63Z" fill="white"/>
<path d="M44 47C47.6767 48.5105 49.7187 50.6489 52.3125 53.625C53.1014 54.5209 53.8903 55.4168 54.7031 56.3398C56.0948 57.9516 57.4817 59.5677 58.8594 61.1914C62.9092 65.9379 67.2177 69.9997 72 74C73.2936 75.1254 73.2936 75.1254 74.6133 76.2734C93.9469 93.3473 93.9469 93.3473 117 103C115.355 104.156 115.355 104.156 113 105C96.1167 99.3315 79.9194 84.8957 67.0586 72.9023C65.2386 71.2205 63.3708 69.6725 61.4375 68.125C57.4794 64.7845 54.4005 60.7426 51.2109 56.6836C49.0028 53.9061 49.0028 53.9061 46.2266 51.2852C44 49 44 49 44 47Z" fill="white"/>
<path d="M237 21C237.66 21 238.32 21 239 21C238.382 25.1416 236.981 28.3529 235.062 32.0625C234.538 33.0847 234.013 34.107 233.473 35.1602C232.987 36.0973 232.501 37.0345 232 38C231.331 39.332 230.663 40.6648 230 42C229.34 42 228.68 42 228 42C227.752 42.7154 227.505 43.4309 227.25 44.168C225.861 47.3141 224.155 49.6381 222 52.3125C221.299 53.1955 220.598 54.0785 219.875 54.9883C219.256 55.6521 218.637 56.316 218 57C217.34 57 216.68 57 216 57C215.773 57.5362 215.546 58.0725 215.312 58.625C212.464 63.7786 208.692 67.5146 204 71C204 70.34 204 69.68 204 69C203.34 68.67 202.68 68.34 202 68C203.375 66.5 203.375 66.5 205 65C205.66 65 206.32 65 207 65C207.258 64.4096 207.516 63.8192 207.781 63.2109C209.102 60.8155 210.479 59.4557 212.5 57.625C223.12 47.1962 230.067 34.0109 237 21Z" fill="white"/>
<path d="M37.1094 235.789C40.0486 237.672 41.5341 240.426 43.25 243.375C43.6135 243.965 43.977 244.556 44.3516 245.164C46.0417 247.985 47 249.656 47 253C46.34 253 45.68 253 45 253C43.2734 250.445 43.2734 250.445 41.375 247.125C40.7434 246.034 40.1117 244.944 39.4609 243.82C38 241 38 241 38 239C35.0233 239.744 35.0233 239.744 33.4375 241.562C32.9631 242.037 32.4888 242.511 32 243C31.34 243 30.68 243 30 243C29.67 243.99 29.34 244.98 29 246C26.9491 247.735 24.9084 249.348 22.75 250.938C21.5986 251.8 20.4476 252.664 19.2969 253.527C18.7394 253.941 18.1818 254.355 17.6074 254.781C16.1075 255.918 14.653 257.116 13.2031 258.316C11 260 11 260 9 260C8.34 261.32 7.68 262.64 7 264C6.34 264 5.68 264 5 264C5 264.66 5 265.32 5 266C3.68 266.33 2.36 266.66 1 267C1.27292 263.821 2.1283 262.874 4.44922 260.59C5.52032 259.696 6.60039 258.812 7.6875 257.938C8.54904 257.227 8.54904 257.227 9.42798 256.501C15.3389 251.652 21.3571 246.931 27.4175 242.271C28.5088 241.394 29.5695 240.479 30.6021 239.534C34.425 236.058 34.425 236.058 37.1094 235.789Z" fill="white"/>
<path d="M131 115C137.366 114.413 141.911 114.659 147.188 118.457C156.513 126.396 159.773 136.044 161 148C161.463 154.327 161.748 160.662 162 167C163.32 167.33 164.64 167.66 166 168C165.01 168.33 164.02 168.66 163 169C158.307 165.389 158.307 165.389 157.526 161.857C157.354 159.313 157.303 156.8 157.312 154.25C157.204 143.158 156.144 131.681 148.258 123.105C142.724 118.225 138.266 116.727 131 116C131 115.67 131 115.34 131 115Z" fill="white"/>
<path d="M87 139C89.31 139 91.62 139 94 139C95.8839 144.997 95.3203 152.239 92.625 157.875C89.332 160.541 85.8492 162.434 82.0938 164.383C78.839 166.084 75.6699 167.896 72.5 169.75C71.5203 170.322 70.5406 170.895 69.5312 171.484C67.6569 172.607 65.8177 173.788 64 175C62.68 175 61.36 175 60 175C60 175.66 60 176.32 60 177C59.01 177 58.02 177 57 177C58.2655 173.203 59.4005 172.927 62.8477 171.039C63.846 170.485 64.8444 169.93 65.873 169.359C66.9256 168.787 67.9781 168.215 69.0625 167.625C71.1168 166.494 73.1702 165.361 75.2227 164.227C76.7002 163.413 76.7002 163.413 78.2075 162.583C80.7312 161.152 83.1798 159.652 85.6211 158.086C89 156 89 156 91 156C90.9884 155.013 90.9768 154.025 90.9648 153.008C90.9558 151.726 90.9468 150.445 90.9375 149.125C90.9259 147.849 90.9143 146.573 90.9023 145.258C91 142 91 142 92 140C90.35 140 88.7 140 87 140C87 139.67 87 139.34 87 139Z" fill="white"/>
<path d="M31 20C34.8155 21.499 36.5375 23.7987 39 27C39.66 27.33 40.32 27.66 41 28C41 28.66 41 29.32 41 30C41.6806 30.2681 42.3613 30.5362 43.0625 30.8125C45.2259 31.687 47.3693 32.6113 49.5 33.5625C52.4073 34.7566 54.9127 35.5322 58 36C58.66 34.68 59.32 33.36 60 32C60.99 32.33 61.98 32.66 63 33C61 35.5625 61 35.5625 58 38C50.6487 38.3802 45.1534 34.6988 39 31C39 30.34 39 29.68 39 29C37.68 28.67 36.36 28.34 35 28C35.9362 29.7299 36.874 31.4589 37.8125 33.1875C38.3346 34.1504 38.8567 35.1134 39.3945 36.1055C40.4504 38.0091 41.5514 39.8886 42.6992 41.7383C44 44 44 44 44 46C39.9359 44.6453 39.1616 42.6259 37 39C36.3256 37.3365 35.66 35.6693 35 34C33.6645 31.7453 32.3147 29.5036 30.9258 27.2812C29.7785 24.4542 30.1623 22.8836 31 20Z" fill="white"/>
<path d="M97 265C101.075 266.358 102.05 269.009 104.062 272.562C104.864 273.94 105.668 275.316 106.473 276.691C107.096 277.761 107.096 277.761 107.731 278.852C109.754 282.277 111.877 285.637 114 289C117.332 294.298 120.603 299.627 123.812 305C128.752 313.995 128.752 313.995 135 322C134.01 322.33 133.02 322.66 132 323C120.066 305.48 120.066 305.48 119 300C118.34 300 117.68 300 117 300C116.671 299.368 116.343 298.737 116.004 298.086C111.755 290.095 106.943 282.569 102 275C97 267.303 97 267.303 97 265Z" fill="white"/>
<path d="M91 175C94.2389 176.048 96.5764 177.358 99.125 179.562C101.806 182.142 101.806 182.142 105 183C112.579 190.865 119.889 201.506 123 212C122.34 212 121.68 212 121 212C120.455 210.961 119.909 209.922 119.348 208.852C112.355 194.99 112.355 194.99 101 185C101 184.34 101 183.68 101 183C100.278 182.732 99.5562 182.464 98.8125 182.188C95.9852 180.994 93.4992 179.785 91 178C91 177.01 91 176.02 91 175Z" fill="white"/>
<path d="M142 220C142.33 220 142.66 220 143 220C142.397 224.864 141.432 229.421 140.062 234.125C139.723 235.303 139.384 236.481 139.035 237.695C138.146 240.535 137.153 243.259 136 246C133.404 245.008 132.235 244.463 130.953 241.941C130.605 240.764 130.605 240.764 130.25 239.562C129.886 238.389 129.886 238.389 129.516 237.191C129 235 129 235 129 232C129.66 232 130.32 232 131 232C131.99 234.64 132.98 237.28 134 240C134.326 238.975 134.652 237.95 134.988 236.895C135.429 235.534 135.871 234.173 136.312 232.812C136.526 232.139 136.739 231.465 136.959 230.771C138.237 226.86 139.632 223.415 142 220Z" fill="white"/>
<path d="M66 181C71.061 181.51 74.7763 183.284 79.0625 185.875C79.9607 186.403 79.9607 186.403 80.877 186.941C82.5905 187.951 84.2954 188.975 86 190C86.9681 190.539 87.9362 191.078 88.9336 191.633C89.6155 192.084 90.2974 192.535 91 193C91 193.66 91 194.32 91 195C91.5827 195.227 92.1653 195.454 92.7656 195.688C95.612 197.36 96.8996 199.28 98.75 202C99.3636 202.887 99.9772 203.774 100.609 204.688C102 207 102 207 102 209C98.0695 207.505 96.7304 205.354 94.5312 201.852C89.9205 195.301 84.4827 192.075 77.5 188.375C75.3216 187.177 73.1444 185.976 70.9688 184.773C70.0142 184.262 69.0596 183.751 68.0762 183.224C67.391 182.82 66.7059 182.416 66 182C66 181.67 66 181.34 66 181Z" fill="white"/>
<path d="M244 173C244.33 173 244.66 173 245 173C245.026 173.911 245.052 174.823 245.078 175.762C245.617 188.065 247.474 200.205 250.552 212.143C251.338 215.404 251.056 218.659 251 222C242.981 207.68 242.239 188.85 244 173Z" fill="white"/>
<path d="M147 101C143.25 102.125 143.25 102.125 141 101C138.878 100.877 136.751 100.824 134.625 100.813C132.912 100.791 132.912 100.791 131.164 100.77C128.079 100.994 126.651 101.573 124 103C122.68 103 121.36 103 120 103C120 103.66 120 104.32 120 105C118.02 105.33 116.04 105.66 114 106C113.67 105.34 113.34 104.68 113 104C114.673 103.283 116.348 102.569 118.027 101.867C119.767 101.102 121.453 100.216 123.125 99.3125C130.7 96.0736 139.949 97.0645 147 101Z" fill="white"/>
<path d="M35 23C37.0412 24.6159 39.0407 26.2856 41 28C41 28.66 41 29.32 41 30C41.6806 30.2681 42.3612 30.5362 43.0625 30.8125C45.2258 31.687 47.3693 32.6113 49.5 33.5625C52.4073 34.7566 54.9127 35.5322 58 36C58.66 34.68 59.32 33.36 60 32C60.99 32.33 61.98 32.66 63 33C61 35.5625 61 35.5625 58 38C50.6487 38.3802 45.1534 34.6988 39 31C39 30.34 39 29.68 39 29C37.68 28.34 36.36 27.68 35 27C35 25.68 35 24.36 35 23Z" fill="white"/>
<path d="M116 295C120.434 298.998 123.163 303.311 126.062 308.5C128.766 313.294 131.395 317.804 135 322C134.01 322.33 133.02 322.66 132 323C120.066 305.48 120.066 305.48 119 300C118.34 300 117.68 300 117 300C116.67 298.35 116.34 296.7 116 295Z" fill="white"/>
<path d="M204 69C202.593 72.5186 201.335 73.3861 198 75C197.67 75.99 197.34 76.98 197 78C195.258 79.6055 195.258 79.6055 193.125 81.1875C192.077 81.9822 192.077 81.9822 191.008 82.793C189 84 189 84 186 84C187.294 80.1181 189.18 79.0161 192.375 76.5C196.184 73.5388 196.184 73.5388 199.664 70.2188C201 69 201 69 204 69Z" fill="white"/>
<path d="M42 64C45.9822 65.3274 46.8936 67.291 49.3125 70.6875C51.8603 74.2308 54.3785 77.5576 57.625 80.5C58.4087 81.325 59.1925 82.15 60 83C59.6484 85.1562 59.6484 85.1562 59 87C56.2342 85.6171 55.5761 83.6395 54 81C52.7219 79.491 51.4082 78.0115 50.0625 76.5625C42 67.6537 42 67.6537 42 64Z" fill="white"/>
<path d="M143 307C143.66 307 144.32 307 145 307C144.398 311.328 142.844 314.53 140.688 318.312C140.093 319.381 139.499 320.45 138.887 321.551C138.264 322.359 137.641 323.167 137 324C135.68 324 134.36 324 133 324C133 323.34 133 322.68 133 322C133.66 322 134.32 322 135 322C135.141 321.188 135.141 321.188 135.285 320.359C136.211 317.302 137.725 314.942 139.438 312.25C140.055 311.265 140.672 310.28 141.309 309.266C141.867 308.518 142.425 307.77 143 307Z" fill="white"/>
<path d="M47 254C50.6553 255.218 50.9942 256.164 52.918 259.402C53.4497 260.292 53.9814 261.183 54.5293 262.1C55.0765 263.036 55.6237 263.973 56.1875 264.938C56.7463 265.87 57.3051 266.803 57.8809 267.764C62 274.719 62 274.719 62 277C62.66 277.33 63.32 277.66 64 278C63.34 278.66 62.68 279.32 62 280C58 274.375 58 274.375 58 271C57.34 271 56.68 271 56 271C54.6842 268.731 53.3722 266.46 52.0625 264.188C51.6893 263.545 51.3161 262.902 50.9316 262.24C49.3653 259.517 47.9963 256.989 47 254Z" fill="white"/>
<path d="M87 139C89.31 139 91.62 139 94 139C95.1015 142.463 95.0183 145.454 94.75 149.062C94.683 150.105 94.6159 151.148 94.5469 152.223C93.9606 155.2 93.3551 156.17 91 158C90.34 157.34 89.68 156.68 89 156C89.66 156 90.32 156 91 156C90.9884 155.013 90.9768 154.025 90.9648 153.008C90.9558 151.726 90.9468 150.445 90.9375 149.125C90.9259 147.849 90.9143 146.573 90.9023 145.258C91 142 91 142 92 140C90.35 140 88.7 140 87 140C87 139.67 87 139.34 87 139Z" fill="white"/>
<path d="M89 89C94.5154 90.8885 99.115 94.1739 103.941 97.3672C108.243 100.136 112.007 101.853 117 103C115.355 104.156 115.355 104.156 113 105C110.301 104.094 110.301 104.094 107.312 102.5C106.258 101.938 105.204 101.376 104.117 100.797C99.9357 98.3865 95.943 95.7794 92 93C91.01 92.34 90.02 91.68 89 91C89 90.34 89 89.68 89 89Z" fill="white"/>
<path d="M191 21C195.334 21.5253 197.62 22.9615 200.938 25.75C202.233 26.8309 202.233 26.8309 203.555 27.9336C204.362 28.6155 205.169 29.2974 206 30C206.642 30.5066 207.284 31.0132 207.945 31.5352C210.617 33.6452 211.898 34.6951 213 38C209.151 36.6992 206.969 35.2479 204.25 32.25C200.718 28.549 197.026 25.8186 192.688 23.1289C192.131 22.7564 191.574 22.3838 191 22C191 21.67 191 21.34 191 21Z" fill="white"/>
<path d="M169 171C172.776 171.524 175.224 172.327 178 175C178 175.99 178 176.98 178 178C170.571 182.429 170.571 182.429 167 183C168.098 180.007 168.677 179.154 171.625 177.75C172.409 177.502 173.192 177.255 174 177C172.35 175.02 170.7 173.04 169 171Z" fill="white"/>
<path d="M69 73C71.8254 74.3182 74.1765 75.7947 76.6016 77.75C77.2564 78.2759 77.9112 78.8019 78.5859 79.3438C79.2588 79.8903 79.9317 80.4369 80.625 81C81.3056 81.5466 81.9862 82.0931 82.6875 82.6562C85.2239 84.7014 87.6944 86.6944 90 89C85.8887 89 84.4191 87.3043 81.1875 84.8125C80.6529 84.4012 80.1182 83.9899 79.5674 83.5662C78.0388 82.3853 76.5192 81.1929 75 80C74.3 79.4586 73.6001 78.9172 72.8789 78.3594C71.5408 77.294 70.2609 76.1558 69 75C69 74.34 69 73.68 69 73Z" fill="white"/>
<path d="M110 191C114.022 194.698 116.685 198.416 119.312 203.188C119.672 203.816 120.031 204.444 120.4 205.092C123 209.722 123 209.722 123 212C122.34 212 121.68 212 121 212C119.538 209.44 118.08 206.877 116.625 204.312C116.213 203.591 115.8 202.87 115.375 202.127C113.316 198.49 111.417 194.948 110 191Z" fill="white"/>
<path d="M163 101C156.183 106 156.183 106 151.75 106C149.019 105.007 147.168 103.918 145 102C148 101 148 101 150.875 101.562C155.588 102.222 158.302 99.5727 163 101Z" fill="white"/>
<path d="M251 218C251.33 218 251.66 218 252 218C252.863 220.789 253.716 223.581 254.562 226.375C254.809 227.169 255.056 227.963 255.311 228.781C255.539 229.542 255.768 230.302 256.004 231.086C256.219 231.788 256.433 232.489 256.655 233.212C257 235 257 235 256 237C252.859 234.45 252.188 231.932 251.25 228.062C250.987 227.022 250.724 225.982 250.453 224.91C250.023 222.145 250.073 220.599 251 218Z" fill="white"/>
<path d="M59 125C59.99 125 60.98 125 62 125C62.5156 125.722 63.0312 126.444 63.5625 127.188C67.0154 131.172 71.2475 132.869 76 135C76 135.66 76 136.32 76 137C71.0213 136.526 67.9328 135.09 64 132C64 131.34 64 130.68 64 130C61.525 129.01 61.525 129.01 59 128C59 127.01 59 126.02 59 125Z" fill="white"/>
<path d="M246 200C249.733 207.077 251.443 214.023 251 222C249.034 218.489 248.038 214.876 247 211C246.794 210.34 246.588 209.68 246.375 209C245.812 205.999 245.941 203.043 246 200Z" fill="white"/>
<path d="M131 115C137.473 114.403 141.925 114.743 147.305 118.555C149.555 120.473 151.331 122.565 153 125C148.66 124.499 146.219 121.75 143 119C139.291 116.528 135.352 116.435 131 116C131 115.67 131 115.34 131 115Z" fill="white"/>
<path d="M38 237C47 247.667 47 247.667 47 253C46.34 253 45.68 253 45 253C43.2734 250.445 43.2734 250.445 41.375 247.125C40.7434 246.034 40.1117 244.944 39.4609 243.82C38 241 38 241 38 239C37.34 238.67 36.68 238.34 36 238C36.66 237.67 37.32 237.34 38 237Z" fill="white"/>
<path d="M165 182C166.32 182.66 167.64 183.32 169 184C167.734 185.151 166.462 186.296 165.188 187.438C164.48 188.076 163.772 188.714 163.043 189.371C161 191 161 191 158 192C158.576 188.647 159.593 187.062 162.062 184.75C162.61 184.229 163.158 183.708 163.723 183.172C164.355 182.592 164.355 182.592 165 182Z" fill="white"/>
<path d="M236 20C236.66 20.33 237.32 20.66 238 21C236.68 23.31 235.36 25.62 234 28C233.34 28 232.68 28 232 28C230.375 29.4583 230.375 29.4583 229 31C228.01 30.67 227.02 30.34 226 30C226.619 29.7525 227.238 29.505 227.875 29.25C230.425 27.75 230.762 26.6303 232 24C233.295 22.6291 234.622 21.2866 236 20Z" fill="white"/>
<path d="M101 210C101.99 210 102.98 210 104 210C104.841 211.6 105.672 213.205 106.5 214.812C106.964 215.706 107.428 216.599 107.906 217.52C109 220 109 220 109 223C106 222 106 222 104.613 219.277C104.184 218.175 103.755 217.073 103.312 215.938C102.876 214.833 102.439 213.728 101.988 212.59C101.662 211.735 101.336 210.881 101 210Z" fill="white"/>
<path d="M108 224C108.99 224 109.98 224 111 224C111.701 225.577 112.386 227.162 113.062 228.75C113.445 229.632 113.828 230.513 114.223 231.422C115.046 234.153 114.977 235.369 114 238C111.605 235.605 110.995 233.62 109.875 230.438C109.522 229.446 109.169 228.455 108.805 227.434C108 225 108 225 108 224Z" fill="white"/>
<path d="M96 111C99.96 112.98 103.92 114.96 108 117C107.67 118.32 107.34 119.64 107 121C106.67 120.34 106.34 119.68 106 119C105.01 119.33 104.02 119.66 103 120C102.67 119.01 102.34 118.02 102 117C98.9999 115.291 98.9999 115.291 96 114C96 113.01 96 112.02 96 111Z" fill="white"/>
<path d="M195 96C195.99 96 196.98 96 198 96C200.104 101.129 200.218 105.561 200 111C199.01 110.67 198.02 110.34 197 110C196.939 109.241 196.879 108.481 196.816 107.699C196.733 106.705 196.649 105.711 196.562 104.688C196.481 103.701 196.4 102.715 196.316 101.699C196.082 98.9062 196.082 98.9062 195 96Z" fill="white"/>
<path d="M209 82C209.99 82.33 210.98 82.66 212 83C211.67 83.99 211.34 84.98 211 86C211.754 88.2579 211.754 88.2579 212.937 90.5625C215 94.8203 215 94.8203 215 97C214.34 97 213.68 97 213 97C212.129 95.4471 211.278 93.8821 210.437 92.3125C209.724 91.0073 209.724 91.0073 208.996 89.6758C207.857 86.6167 208.073 85.0814 209 82Z" fill="white"/>
<path d="M227 63C227.99 63 228.98 63 230 63C231.65 66.63 233.3 70.26 235 74C234.01 74.66 233.02 75.32 232 76C232 74.68 232 73.36 232 72C231.34 72 230.68 72 230 72C229.01 69.03 228.02 66.06 227 63Z" fill="white"/>
<path d="M255 236C258.49 239.024 259.881 241.525 261 246C261 247.32 261 248.64 261 250C260.34 250 259.68 250 259 250C258.33 248.043 257.664 246.084 257 244.125C256.629 243.034 256.257 241.944 255.875 240.82C255 238 255 238 255 236Z" fill="white"/>
<path d="M235 241C239.172 241.519 241.254 242.712 244.312 245.562C245.01 246.203 245.707 246.844 246.426 247.504C246.945 247.998 247.465 248.491 248 249C247.67 249.99 247.34 250.98 247 252C247 251.34 247 250.68 247 250C246.428 249.733 245.855 249.466 245.266 249.191C242.907 247.951 240.877 246.541 238.75 244.938C238.044 244.41 237.337 243.883 236.609 243.34C236.078 242.898 235.547 242.456 235 242C235 241.67 235 241.34 235 241Z" fill="white"/>
<path d="M129 232C129.66 232 130.32 232 131 232C131.482 233.249 131.96 234.499 132.438 235.75C132.704 236.446 132.971 237.142 133.246 237.859C133.961 239.891 134.514 241.904 135 244C134.01 244 133.02 244 132 244C131.494 242.564 130.996 241.126 130.5 239.688C130.222 238.887 129.943 238.086 129.656 237.262C129 235 129 235 129 232Z" fill="white"/>
<path d="M200 183C197.711 184.339 195.419 185.671 193.125 187C192.474 187.382 191.823 187.763 191.152 188.156C186.227 191 186.227 191 184 191C184 190.34 184 189.68 184 189C186.098 187.8 188.202 186.615 190.312 185.437C191.205 184.924 191.205 184.924 192.115 184.4C196.66 181.887 196.66 181.887 200 183Z" fill="white"/>
<path d="M160 148C160.33 148 160.66 148 161 148C161.33 154.27 161.66 160.54 162 167C163.32 167.33 164.64 167.66 166 168C163 169 163 169 160.797 168.137C158.3 165.167 158.732 163.099 159.004 159.338C159.126 158.088 159.126 158.088 159.25 156.812C159.316 155.968 159.381 155.123 159.449 154.252C159.614 152.166 159.805 150.083 160 148Z" fill="white"/>
<path d="M57 61C57.4357 61.3751 57.8714 61.7502 58.3203 62.1367C62.1861 65.4586 66.0766 68.7464 70 72C69.34 72.66 68.68 73.32 68 74C66.2734 72.2734 64.5473 70.5465 62.8242 68.8164C61.4226 67.4208 59.9974 66.0488 58.5625 64.6875C57 63 57 63 57 61Z" fill="white"/>
<path d="M108 281C110.86 283.516 112.415 286.339 114.188 289.688C114.717 290.681 115.247 291.675 115.793 292.699C116.191 293.458 116.59 294.218 117 295C116.01 295.495 116.01 295.495 115 296C113.822 294.257 112.658 292.506 111.5 290.75C110.85 289.775 110.201 288.801 109.531 287.797C108 285 108 285 108 281Z" fill="white"/>
<path d="M207 273C207.66 273 208.32 273 209 273C208.125 277.75 208.125 277.75 207 280C205.35 279.67 203.7 279.34 202 279C202 278.01 202 277.02 202 276C203.32 276 204.64 276 206 276C206.33 275.01 206.66 274.02 207 273Z" fill="white"/>
<path d="M144 212C144.99 212.33 145.98 212.66 147 213C146.604 214.651 146.183 216.296 145.75 217.938C145.402 219.312 145.402 219.312 145.047 220.715C144 223 144 223 141.891 223.816C141.267 223.877 140.643 223.938 140 224C140.477 222.374 140.957 220.749 141.438 219.125C141.704 218.22 141.971 217.315 142.246 216.383C143 214 143 214 144 212Z" fill="white"/>
<path d="M106 118C106.33 118.99 106.66 119.98 107 121C98.5714 124.429 98.5714 124.429 94 124C94 123.34 94 122.68 94 122C94.6987 121.795 95.3973 121.59 96.1172 121.379C97.0273 121.109 97.9373 120.84 98.875 120.562C99.7799 120.296 100.685 120.029 101.617 119.754C103.983 119.074 103.983 119.074 106 118Z" fill="white"/>
<path d="M22 247C22.99 247.66 23.98 248.32 25 249C20.545 251.97 20.545 251.97 16 255C15.34 254.34 14.68 253.68 14 253C16.64 251.02 19.28 249.04 22 247Z" fill="white"/>
<path d="M204 69C202.951 71.6219 202.351 72.7937 199.875 74.25C199.256 74.4975 198.637 74.745 198 75C198 75.66 198 76.32 198 77C197.01 77 196.02 77 195 77C196.864 72.6496 198.976 69 204 69Z" fill="white"/>
<path d="M163 274C163.66 274 164.32 274 165 274C164.447 277.316 163.832 280.151 162 283C161.01 283.33 160.02 283.66 159 284C159.563 280.059 160.679 277.249 163 274Z" fill="white"/>
<path d="M54 111C54.33 111 54.66 111 55 111C55.4811 112.416 55.9598 113.833 56.4375 115.25C56.8378 116.433 56.8378 116.433 57.2461 117.641C57.9195 119.748 58.4915 121.848 59 124C58.34 124 57.68 124 57 124C52.9385 117.846 52.9385 117.846 53.25 113.562C53.4975 112.717 53.745 111.871 54 111Z" fill="white"/>
<path d="M126 311C128.971 313.766 130.972 316.497 133 320C133.66 320.66 134.32 321.32 135 322C134.01 322.33 133.02 322.66 132 323C130.992 321.568 129.994 320.129 129 318.688C128.165 317.487 128.165 317.487 127.312 316.262C126 314 126 314 126 311Z" fill="white"/>
<path d="M79 187C83.0931 188.653 86.5898 190.135 90 193C88.2656 193.652 88.2656 193.652 86 194C83.8594 193.004 83.8594 193.004 81.75 191.562C81.0436 191.089 80.3372 190.616 79.6094 190.129C79.0783 189.756 78.5472 189.384 78 189C78.33 188.34 78.66 187.68 79 187Z" fill="white"/>
<path d="M151 125C152.812 125.5 152.812 125.5 155 127C156.262 129.586 157.156 132.252 158 135C157.01 135 156.02 135 155 135C154.328 133.711 153.663 132.419 153 131.125C152.629 130.406 152.257 129.686 151.875 128.945C151 127 151 127 151 125Z" fill="white"/>
<path d="M69 109C69.66 109 70.32 109 71 109C71.4331 109.928 71.8663 110.856 72.3125 111.812C73.7204 114.472 74.7612 116.081 77 118C76.67 118.99 76.34 119.98 76 121C76 120.34 76 119.68 76 119C75.4019 118.773 74.8037 118.546 74.1875 118.312C71.3882 116.633 70.419 114.909 69 112C69 111.01 69 110.02 69 109Z" fill="white"/>
<path d="M180 109C178.048 110.197 176.088 111.382 174.125 112.563C173.034 113.224 171.944 113.885 170.82 114.566C169.424 115.276 169.424 115.276 168 116C167.34 115.67 166.68 115.34 166 115C175.975 107.658 175.975 107.658 180 109Z" fill="white"/>
<path d="M219 71C219.99 71.33 220.98 71.66 222 72C219.36 74.97 216.72 77.94 214 81C213.34 80.67 212.68 80.34 212 80C212.33 79.34 212.66 78.68 213 78C213.66 78 214.32 78 215 78C215.289 77.4019 215.577 76.8037 215.875 76.1875C217 74 217 74 219 71Z" fill="white"/>
<path d="M208 62C208.66 62.99 209.32 63.98 210 65C208.35 66.98 206.7 68.96 205 71C204.67 70.34 204.34 69.68 204 69C203.34 68.67 202.68 68.34 202 68C203.375 66.5 203.375 66.5 205 65C205.66 65 206.32 65 207 65C207.33 64.01 207.66 63.02 208 62Z" fill="white"/>
<path d="M115 236C116.737 239.225 117.891 242.513 119 246C118.01 246.33 117.02 246.66 116 247C115.01 243.7 114.02 240.4 113 237C113.66 236.67 114.32 236.34 115 236Z" fill="white"/>
<path d="M123 118C123.66 118.33 124.32 118.66 125 119C122.36 121.64 119.72 124.28 117 127C116.34 126.67 115.68 126.34 115 126C115.954 124.851 116.914 123.706 117.875 122.562C118.409 121.924 118.942 121.286 119.492 120.629C121 119 121 119 123 118Z" fill="white"/>
<path d="M69 73C72.9414 74.6675 75.7893 77.2271 79 80C78.34 80.66 77.68 81.32 77 82C75.6608 80.882 74.3288 79.7554 73 78.625C71.8863 77.6853 71.8863 77.6853 70.75 76.7266C70.1725 76.1568 69.595 75.587 69 75C69 74.34 69 73.68 69 73Z" fill="white"/>
<path d="M178 14C181.848 13.4169 183.763 14.2997 186.812 16.5C187.884 17.3222 188.949 18.152 190 19C189.67 19.66 189.34 20.32 189 21C185.37 19.02 181.74 17.04 178 15C178 14.67 178 14.34 178 14Z" fill="white"/>
<path d="M67 273C67.66 273 68.32 273 69 273C68.3872 275.962 67.7463 277.381 66 280C65.01 280 64.02 280 63 280C64.074 277.085 64.7781 275.222 67 273Z" fill="white"/>
<path d="M176 253C178.062 253.438 178.062 253.438 180 254C178.726 256.038 177.389 258.039 176 260C175.34 260 174.68 260 174 260C174.875 254.125 174.875 254.125 176 253Z" fill="white"/>
<path d="M117 246C117.66 246 118.32 246 119 246C120.316 249.62 121 252.096 121 256C120.34 256 119.68 256 119 256C117.684 252.38 117 249.904 117 246Z" fill="white"/>
<path d="M60 32C60.99 32.33 61.98 32.66 63 33C58.6923 37.9231 58.6923 37.9231 55.1875 38.3125C54.1047 38.1578 54.1047 38.1578 53 38C53 37.34 53 36.68 53 36C54.65 36 56.3 36 58 36C58.66 34.68 59.32 33.36 60 32Z" fill="white"/>
<path d="M31 20C32.32 20.66 33.64 21.32 35 22C34.67 22.99 34.34 23.98 34 25C33.67 25 33.34 25 33 25C33 25.66 33 26.32 33 27C32.34 27 31.68 27 31 27C30.6187 25.0086 30.2867 23.0072 30 21C30.33 20.67 30.66 20.34 31 20Z" fill="white"/>
<path d="M103 183C103.66 183 104.32 183 105 183C106.289 184.461 106.289 184.461 107.625 186.375C108.294 187.315 108.294 187.315 108.977 188.273C110 190 110 190 110 192C109.34 192 108.68 192 108 192C106.711 190.539 106.711 190.539 105.375 188.625C104.929 187.999 104.483 187.372 104.023 186.727C103 185 103 185 103 183Z" fill="white"/>
<path d="M233 75C233.99 75.33 234.98 75.66 236 76C236.73 77.8477 236.73 77.8477 237.188 80.0625C237.346 80.796 237.505 81.5295 237.668 82.2852C237.832 83.134 237.832 83.134 238 84C237.01 84 236.02 84 235 84C234.34 81.03 233.68 78.06 233 75Z" fill="white"/>
<path d="M128 284C128.99 284.33 129.98 284.66 131 285C132.188 288.562 132.188 288.562 133 292C132.01 292.33 131.02 292.66 130 293C129.34 290.03 128.68 287.06 128 284Z" fill="white"/>
<path d="M118 202C120.645 205.125 121.844 208.088 123 212C122.34 212 121.68 212 121 212C119.68 209.03 118.36 206.06 117 203C117.33 202.67 117.66 202.34 118 202Z" fill="white"/>
<path d="M91 142C91.33 142 91.66 142 92 142C92.33 146.95 92.66 151.9 93 157C92.01 157.495 92.01 157.495 91 158C90.34 157.34 89.68 156.68 89 156C89.66 156 90.32 156 91 156C91 151.38 91 146.76 91 142Z" fill="white"/>
<path d="M150.562 101.75C151.697 102.163 152.831 102.575 154 103C154.33 103.99 154.66 104.98 155 106C150.781 105.521 148.203 104.834 145 102C147 101 147 101 150.562 101.75Z" fill="white"/>
<path d="M169 96C168.67 96.99 168.34 97.98 168 99C165.438 100.188 165.438 100.188 163 101C162.34 100.34 161.68 99.68 161 99C165.625 96 165.625 96 169 96Z" fill="white"/>
<path d="M177 194C177.99 194.33 178.98 194.66 180 195C178.02 196.98 176.04 198.96 174 201C173.34 200.67 172.68 200.34 172 200C173.65 198.02 175.3 196.04 177 194Z" fill="white"/>
<path d="M43 32C46.5578 32.6099 49.6829 33.5784 53 35C53 35.66 53 36.32 53 37C48.2483 36.568 46.08 35.6723 43 32Z" fill="white"/>
<path d="M97 265C100 266 100 266 101.688 269.062C102.121 270.032 102.554 271.001 103 272C102.34 272.66 101.68 273.32 101 274C97 267.25 97 267.25 97 265Z" fill="white"/>
<path d="M2 259C3.32 259.66 4.64 260.32 6 261C3.03 263.475 3.03 263.475 0 266C0.875 260.125 0.875 260.125 2 259Z" fill="white"/>
<path d="M136 237C136.33 237 136.66 237 137 237C137 239.64 137 242.28 137 245C136.01 245.33 135.02 245.66 134 246C134.875 238.125 134.875 238.125 136 237Z" fill="white"/>
<path d="M198 103C198.33 103 198.66 103 199 103C199.054 104.604 199.093 106.208 199.125 107.812C199.148 108.706 199.171 109.599 199.195 110.52C199 113 199 113 197 116C196.618 114.344 196.286 112.675 196 111C196.33 110.67 196.66 110.34 197 110C197.368 107.672 197.702 105.338 198 103Z" fill="white"/>
<path d="M226 62C226.99 62.33 227.98 62.66 229 63C227.421 65.3684 226.025 67.0675 224 69C223.34 68.67 222.68 68.34 222 68C223.32 66.02 224.64 64.04 226 62Z" fill="white"/>
<path d="M237 21C237.66 21 238.32 21 239 21C238.477 23.7628 237.891 26.3261 237 29C236.34 29 235.68 29 235 29C235.875 23.25 235.875 23.25 237 21Z" fill="white"/>
<path d="M3 262C4.32 262.66 5.64 263.32 7 264C6.34 264 5.68 264 5 264C5 264.66 5 265.32 5 266C3.68 266.33 2.36 266.66 1 267C1.875 263.125 1.875 263.125 3 262Z" fill="white"/>
<path d="M261 247C262.523 249.937 263.801 252.917 265 256C264.01 256 263.02 256 262 256C259.875 250.375 259.875 250.375 261 247Z" fill="white"/>
<path d="M169 171C172.688 171.498 174.605 172.101 177 175C176.01 175.33 175.02 175.66 174 176C172.35 174.35 170.7 172.7 169 171Z" fill="white"/>
<path d="M59 125C59.99 125 60.98 125 62 125C63.6875 127 63.6875 127 65 129C64.67 129.66 64.34 130.32 64 131C61.5 129.688 61.5 129.688 59 128C59 127.01 59 126.02 59 125Z" fill="white"/>
<path d="M72 96C74.9618 96.6128 76.3806 97.2537 79 99C78.67 99.99 78.34 100.98 78 102C75.9795 100.358 73.9796 98.6909 72 97C72 96.67 72 96.34 72 96Z" fill="white"/>
<path d="M71 95C71.99 95.33 72.98 95.66 74 96C72.515 99.465 72.515 99.465 71 103C70.34 103 69.68 103 69 103C69.875 97.25 69.875 97.25 71 95Z" fill="white"/>
</svg>
